<svg xmlns="http://www.w3.org/2000/svg" xmlns:se="http://svg-edit.googlecode.com" xmlns:xlink="http://www.w3.org/1999/xlink" xmlns:dc="http://purl.org/dc/elements/1.1/" xmlns:cc="http://creativecommons.org/ns#" xmlns:rdf="http://www.w3.org/1999/02/22-rdf-syntax-ns#" xmlns:inkscape="http://www.inkscape.org/namespaces/inkscape" width="500" height="500">
                                    <title>my vector image</title>
                                    <!-- Created with Vector Paint - http://www.vectorpaint.yaks.com/ https://chrome.google.com/webstore/detail/hnbpdiengicdefcjecjbnjnoifekhgdo -->
                                    <rect id="backgroundrect" width="100%" height="100%" x="0" y="0" fill="#FFFFFF" stroke="none"/>
                                <g style="" class="currentLayer"><title>Layer 1</title><polyline fill="none" stroke="#222222" stroke-width="2" stroke-linejoin="round" stroke-dashoffset="" fill-rule="nonzero" marker-start="" marker-mid="" marker-end="" id="svg_1" points="368.7499842340395,285.26784854427905 365.17855573103463,285.26784854427905 364.2856986052834,285.26784854427905 360.71427010227853,285.26784854427905 354.46427022202,285.26784854427905 346.4285560902591,285.26784854427905 335.7142705812445,282.58927716702544 324.1071279464786,279.01784866402056 310.7142710602103,274.55356303526446 297.3214141739421,267.4107060292547 284.82141441342503,261.16070614899616 266.0714147726494,253.12499201723526 249.99998650912755,243.3035636339718 234.8214153713568,235.2678495022108 221.4285584850885,225.44642111894746 206.24998734731787,214.7321356099328 193.74998758680078,206.69642147817189 182.14284495203492,196.87499309490846 169.64284519151784,187.05356471164504 159.82141680825453,179.0178505798841 152.67855980224476,171.87499357387435 147.32141704773744,164.7321365678646 143.74998854473256,158.4821366876061 141.96427429323012,153.12499393309878 141.96427429323012,146.87499405284024 141.96427429323012,140.6249941725817 144.64284567048378,133.482137166572 150.89284555074232,125.44642303481099 154.4642740537472,120.9821374060549 158.03570255675209,114.73213752579636 161.60713105975697,110.26785189704032 165.17855956276173,106.69642339403543 166.96427381426417,104.01785201678177 169.64284519151784,103.12499489103055 169.64284519151784,103.12499489103055 168.74998806576662,103.12499489103055 166.07141668851295,105.80356626828421 160.71427393400575,109.3749947712891 152.67855980224476,113.8392804000452 144.64284567048378,120.9821374060549 134.82141728722036,128.12499441206467 122.32141752670327,138.83927992107925 112.49998914343996,149.5535654300939 103.57141788592776,160.26785093910854 94.64284662841555,173.6607078253768 84.82141824515213,188.83927896314748 81.24998974214725,195.98213596915724 74.99998986188871,210.26784998117677 72.32141848463505,220.08927836444013 71.42856135888383,224.55356399319624 71.42856135888383,231.69642099920597 72.32141848463505,238.83927800521568 76.78570411339115,245.98213501122544 84.82141824515213,253.12499201723526 93.74998950266433,258.48213477174255 106.24998926318142,262.9464204004986 123.21427465245448,266.5178489035035 141.0714171674789,269.19642028075714 161.60713105975697,270.9821345322596 180.35713070053248,270.9821345322596 200.89284459281055,270.9821345322596 219.64284423358606,270.9821345322596 237.49998674861047,270.9821345322596 255.35712926363485,270.9821345322596 269.6428432756543,270.9821345322596 281.24998591042015,270.9821345322596 293.74998567093724,270.9821345322596 301.7856998026982,273.66070590951324 308.92855680870787,274.55356303526446 312.49998531171275,278.12499153826934 316.07141381471763,281.6964200412742 316.07141381471763,287.0535627957815 316.07141381471763,292.4107055502888 312.49998531171275,298.66070543054735 306.2499854314543,305.80356243655706 299.9999855511958,312.0535623168156 290.17855716793235,320.0892764485766 281.24998591042015,327.23213345458635 270.5357004014055,337.05356183784977 260.7142720181421,345.98213309536186 250.8928436348788,355.8035614786253 241.07141525161532,366.5178469876399 233.03570111985434,377.2321324966546 224.99998698809338,387.053560879918 218.74998710783484,395.9821321374301 210.71427297607386,405.8035605206935 204.46427309581543,412.94641752670327 198.2142732155569,420.08927453271303 191.07141620954712,426.3392744129716 183.03570207778614,431.6964171674789 175.89284507177638,435.2678456704838 168.74998806576662,438.83927417348866 161.60713105975697,441.5178455507422 153.57141692799598,442.41070267649343 147.32141704773744,442.41070267649343 141.0714171674789,439.73213129923977 135.71427441297158,435.2678456704838 130.35713165846425,424.55356016146914 125.89284602970815,414.7321317782057 123.21427465245448,404.01784626919107 120.53570327520083,389.73213225717166 118.74998902369839,378.1249896224058 117.85713189794716,363.83927561038627 117.85713189794716,351.3392758498692 117.85713189794716,337.05356183784977 118.74998902369839,320.9821335743278 119.6428461494496,310.26784806531316 124.10713177820571,294.19641980179125 129.46427453271303,281.6964200412742 134.82141728722036,268.3035631550059 141.0714171674789,256.6964205202401 150.89284555074232,239.73213513096692 158.9285596825033,225.44642111894746 166.07141668851295,213.8392784841816 176.7857021975276,199.55356447216212 187.49998770654224,187.05356471164504 198.2142732155569,178.1249934541329 209.82141585032275,167.41070794511825 222.32141561083972,160.26785093910854 233.9285582456056,154.01785105885 247.32141513187392,147.76785117859146 262.4999862696445,140.6249941725817 274.1071289044104,136.16070854382565 284.82141441342503,132.58928004082077 294.64284279668846,129.0178515378159 306.2499854314543,125.44642303481099 316.07141381471763,122.76785165755734 326.7856993237323,120.9821374060549 333.92855632974204,117.41070890305004 341.0714133357518,115.6249946515476 348.21427034176156,113.8392804000452 352.67855597051766,112.05356614854276 358.0356987250249,110.26785189704032 362.499984353781,107.58928051978666 365.17855573103463,104.01785201678177 366.9642699825371,100.44642351377689 369.64284135979074,96.87499501077201 372.3214127370444,92.41070938201591 372.3214127370444,88.83928087901108 373.2142698627956,86.16070950175742 373.2142698627956,81.69642387300132 372.3214127370444,78.12499536999644 370.53569848554196,75.44642399274278 368.7499842340395,74.55356686699156 366.07141285678586,70.98213836398668 362.499984353781,68.30356698673302 358.0356987250249,65.62499560947941 352.67855597051766,62.05356710647453 345.5356989645079,60.26785285497209 337.4999848327469,56.69642435196721 328.5714135752347,53.12499584896233 319.6428423177225,50.44642447170867 309.8214139344591,49.55356734595745 302.67855692844944,49.55356734595745 290.17855716793235,49.55356734595745 283.9285572876738,53.12499584896233 281.24998591042015,56.69642435196721 277.67855740741527,62.05356710647453 274.9999860301616,67.4107098609818 272.32141465290795,77.23213824424522 270.5357004014055,87.05356662750864 268.74998614990307,95.98213788502079 268.74998614990307,106.69642339403543 269.6428432756543,119.19642315455246 273.21427177865917,130.80356578931833 280.35712878466893,144.19642267558658 291.0714142936836,158.4821366876061 306.2499854314543,174.553564951128 323.2142708207274,187.94642183739626 341.964270461503,202.23213584941578 358.9285558507761,212.94642135843037 380.3571268688054,224.55356399319624 395.5356980065761,231.69642099920597 412.4999833958492,238.83927800521568 426.7856974078687,245.98213501122544 437.49998291688337,249.55356351423032 447.3214113001468,254.91070626873767 451.7856969289028,258.48213477174255 454.46426830615655,260.26784902324493 455.35712543190766,263.8392775262498 455.35712543190766,267.4107060292547 451.7856969289028,270.9821345322596 446.42855417439546,277.2321344125181 437.49998291688337,284.3749914185278 428.57141165937117,290.62499129878637 418.74998327610774,295.9821340532937 406.24998351559066,304.91070531080584 392.85712662932247,312.9464194425668 381.2499839945566,320.0892764485766 366.9642699825371,329.91070483184 355.3571273477712,337.946418963601 341.0714133357518,347.7678473468643 325.89284219798105,358.48213285587894 312.49998531171275,369.1964183648936 302.67855692844944,378.1249896224058 295.5356999224397,388.83927513142044 291.0714142936836,398.66070351468375 290.17855716793235,406.69641764644473 291.0714142936836,416.51784602970815 294.64284279668846,422.7678459099667 299.10712842544456,427.2321315387228 308.03569968295665,430.8035600417277 315.1785566889664,431.6964171674789 323.2142708207274,433.48213141898134 331.2499849524884,434.37498854473256 341.0714133357518,434.37498854473256 349.1071274675128,434.37498854473256 358.0356987250249,434.37498854473256 365.17855573103463,433.48213141898134 369.64284135979074,433.48213141898134 375.8928412400493,432.5892742932301 377.6785554915517,432.5892742932301 380.3571268688054,432.5892742932301 379.46426974305416,432.5892742932301 378.57141261730294,433.48213141898134 374.99998411429806,434.37498854473256 370.53569848554196,435.2678456704838 362.499984353781,435.2678456704838 354.46427022202,435.2678456704838 343.74998471300546,435.2678456704838 331.2499849524884,435.2678456704838 316.96427094046885,435.2678456704838 303.57141405420066,432.5892742932301 287.4999857906787,429.01784579022524 271.4285575271567,425.44641728722036 255.35712926363485,421.8749887842155 238.3928438743617,417.4107031554594 222.32141561083972,413.8392746524545 208.0357015988203,408.48213189794717 191.07141620954712,403.12498914343985 178.57141644903004,397.7678463889325 165.17855956276173,390.6249893829229 155.35713117949842,383.4821323769131 146.42855992198622,375.44641824515213 141.0714171674789,367.41070411339115 135.71427441297158,356.6964186043765 131.24998878421547,345.98213309536186 128.5714174069618,335.26784758634733 127.6785602812106,320.9821335743278 126.78570315545939,308.4821338138107 126.78570315545939,295.9821340532937 130.35713165846425,283.4821342927766 134.82141728722036,270.9821345322596 140.17856004172768,260.26784902324493 145.535702796235,246.8749921369767 154.4642740537472,232.58927812495722 158.9285596825033,224.55356399319624 168.74998806576662,211.16070710692793 176.7857021975276,199.55356447216212 183.92855920353736,187.05356471164504 191.07141620954712,178.1249934541329 198.2142732155569,167.41070794511825 201.78570171856177,160.26785093910854 " style="color: rgb(0, 0, 0);"/><polyline fill="none" stroke="#222222" stroke-width="2" stroke-linejoin="round" stroke-dashoffset="" fill-rule="nonzero" marker-start="" marker-mid="" marker-end="" id="svg_2" points="58.03570447261563,70.98213836398668 59.82141872411808,73.66070974124034 62.49999010137174,74.55356686699156 66.96427573012772,77.23213824424522 77.67856123914237,81.69642387300132 91.07141812541067,84.37499525025498 108.03570351468386,87.05356662750864 123.21427465245448,88.83928087901108 143.74998854473256,90.62499513051347 162.49998818550807,91.51785225626469 183.03570207778614,91.51785225626469 206.24998734731787,92.41070938201591 223.21427273659094,94.19642363351835 241.96427237736657,95.98213788502079 258.92855776663964,98.66070926227445 276.78570028166405,101.33928063952811 297.3214141739421,106.69642339403543 312.49998531171275,110.26785189704032 325.89284219798105,115.6249946515476 337.4999848327469,120.08928028030368 344.6428418387567,124.55356590905978 351.78569884476644,128.12499441206467 355.3571273477712,131.69642291506955 355.3571273477712,135.26785141807443 355.3571273477712,138.83927992107925 353.5714130962689,144.19642267558658 348.21427034176156,149.5535654300939 341.964270461503,156.69642243610366 333.0356992039908,163.83927944211337 323.2142708207274,170.98213644812313 310.7142710602103,180.80356483138655 298.21427129969334,190.62499321464992 286.6071286649275,198.6607073464109 274.1071289044104,206.69642147817189 262.4999862696445,213.8392784841816 249.99998650912755,220.98213549019135 237.49998674861047,228.12499249620112 224.99998698809338,235.2678495022108 215.17855860482996,242.41070650822056 206.24998734731787,248.66070638847916 198.2142732155569,254.91070626873767 191.96427333529834,260.26784902324493 187.49998770654224,266.5178489035035 183.92855920353736,272.767848783762 183.03570207778614,277.2321344125181 183.03570207778614,283.4821342927766 183.92855920353736,288.83927704728393 190.1785590837959,295.9821340532937 195.53570183830323,302.2321339335522 205.35713022156665,309.37499093956194 216.07141573058118,313.83927656831804 227.67855836534704,319.19641932282536 241.07141525161532,320.9821335743278 255.35712926363485,324.5535620773327 269.6428432756543,327.23213345458635 281.24998591042015,329.91070483184 291.0714142936836,331.69641908334245 299.10712842544456,333.4821333348449 305.3571283057031,335.26784758634733 308.03569968295665,337.946418963601 308.92855680870787,340.62499034085465 308.92855680870787,344.1964188438594 308.92855680870787,348.6607044726155 308.92855680870787,353.1249901013716 307.1428425572054,360.2678471073814 303.57141405420066,365.6249898618887 298.21427129969334,370.98213261639603 291.9642714194348,377.2321324966546 283.0357001619226,383.4821323769131 273.21427177865917,388.83927513142044 262.4999862696445,395.08927501167886 250.8928436348788,401.3392748919374 238.3928438743617,406.69641764644473 224.99998698809338,415.62498890395693 210.71427297607386,423.6607030357179 198.2142732155569,431.6964171674789 187.49998770654224,438.83927417348866 178.57141644903004,447.76784543100075 171.42855944302028,455.80355956276173 166.07141668851295,460.26784519151784 163.3928453112593,465.6249879460251 163.3928453112593,467.4107021975276 163.3928453112593,470.08927357478126 165.17855956276173,470.98213070053254 169.64284519151784,470.98213070053254 175.89284507177638,473.6607020777861 186.60713058079102,474.55355920353736 199.1071303413081,478.1249877065423 216.07141573058118,480.80355908379585 236.60712962285922,483.48213046104956 255.35712926363485,485.267844712552 275.89284315591283,485.267844712552 299.10712842544456,485.267844712552 " style="color: rgb(0, 0, 0);"/><polyline fill="#0bd5d5" stroke="#222222" stroke-width="2" stroke-linejoin="round" stroke-dashoffset="" fill-rule="nonzero" marker-start="" marker-mid="" marker-end="" id="svg_3" points="168.74998806576662,128.12499441206467 170.53570231726906,121.87499453180611 172.3214165687715,119.19642315455246 173.21427369452272,117.41070890305004 173.21427369452272,117.41070890305004 171.42855944302028,117.41070890305004 167.8571309400154,120.9821374060549 161.60713105975697,126.33928016056223 154.4642740537472,130.80356578931833 143.74998854473256,138.83927992107925 133.03570303571792,145.0892798013378 119.6428461494496,153.12499393309878 108.03570351468386,160.26785093910854 95.53570375416678,167.41070794511825 87.49998962240579,174.553564951128 82.14284686789847,179.91070770563533 79.46427549064481,185.26785046014265 77.67856123914237,192.41070746615236 77.67856123914237,198.6607073464109 79.46427549064481,205.80356435242066 81.24998974214725,212.05356423267915 86.60713249665457,219.1964212386889 93.74998950266433,226.33927824469868 99.10713225717166,233.48213525070844 108.92856064043508,240.62499225671814 119.6428461494496,247.7678492627279 133.03570303571792,255.8035633944889 145.535702796235,260.26784902324493 156.24998830524964,263.8392775262498 169.64284519151784,266.5178489035035 183.92855920353736,267.4107060292547 199.1071303413081,267.4107060292547 213.39284435332752,267.4107060292547 230.3571297426007,263.8392775262498 244.6428437546202,260.26784902324493 259.82141489239086,254.91070626873767 273.21427177865917,250.44642063998157 283.9285572876738,245.98213501122544 294.64284279668846,240.62499225671814 302.67855692844944,237.05356375371326 316.96427094046885,229.91070674770356 319.6428423177225,229.01784962195234 322.3214136949762,226.33927824469868 320.53569944347373,226.33927824469868 313.39284243746397,228.12499249620112 308.92855680870787,229.91070674770356 301.7856998026982,231.69642099920597 291.0714142936836,237.05356375371326 280.35712878466893,241.5178493824694 270.5357004014055,245.98213501122544 262.4999862696445,253.12499201723526 252.6785578863812,260.26784902324493 242.8571295031178,267.4107060292547 233.9285582456056,274.55356303526446 226.78570123959582,280.803562915523 220.53570135933728,287.0535627957815 213.39284435332752,295.08927692754247 210.71427297607386,301.339276807801 208.92855872457153,306.6964195623083 208.92855872457153,312.0535623168156 208.92855872457153,315.6249908198205 211.60713010182508,319.19641932282536 212.4999872275763,320.9821335743278 216.07141573058118,322.76784782583024 219.64284423358606,324.5535620773327 224.10712986234216,324.5535620773327 230.3571297426007,324.5535620773327 237.49998674861047,324.5535620773327 248.21427225762508,324.5535620773327 256.2499863893861,324.5535620773327 268.74998614990307,322.76784782583024 280.35712878466893,320.9821335743278 290.17855716793235,319.19641932282536 300.892842676947,317.4107050713229 309.8214139344591,313.83927656831804 316.96427094046885,312.0535623168156 323.2142708207274,310.26784806531316 327.6785564494835,306.6964195623083 331.2499849524884,304.91070531080584 336.6071277069957,301.339276807801 340.1785562100006,299.5535625562986 344.6428418387567,295.9821340532937 350.8928417190152,292.4107055502888 356.24998447352243,288.83927704728393 365.17855573103463,283.4821342927766 372.3214127370444,278.12499153826934 380.3571268688054,272.767848783762 387.49998387481514,267.4107060292547 395.5356980065761,262.0535632747474 402.6785550125858,256.6964205202401 408.9285548928443,251.3392777657328 413.3928405216004,245.98213501122544 416.9642690246053,240.62499225671814 420.5356975276102,233.48213525070844 422.3214117791126,228.12499249620112 423.21426890486384,219.1964212386889 423.21426890486384,210.26784998117677 421.4285546533614,203.124992975167 418.74998327610774,193.30356459190358 414.28569764735164,183.4821362086402 409.82141201859554,174.553564951128 404.4642692640882,167.41070794511825 397.32141225807857,157.58927956185488 389.2856981263176,149.5535654300939 377.6785554915517,140.6249941725817 366.07141285678586,132.58928004082077 353.5714130962689,125.44642303481099 337.4999848327469,117.41070890305004 324.99998507222983,110.26785189704032 310.7142710602103,103.12499489103055 299.10712842544456,96.87499501077201 286.6071286649275,89.7321380047623 277.67855740741527,85.2678523760062 268.74998614990307,81.69642387300132 261.6071291438933,78.12499536999644 256.2499863893861,75.44642399274278 249.99998650912755,74.55356686699156 245.53570088037145,72.76785261548912 241.07141525161532,72.76785261548912 235.71427249710803,71.8749954897379 229.46427261684946,71.8749954897379 223.21427273659094,72.76785261548912 216.9642728563324,74.55356686699156 210.71427297607386,77.23213824424522 205.35713022156665,79.91070962149888 200.89284459281055,83.48213812450376 197.32141608980567,88.83928087901108 197.32141608980567,90.62499513051347 196.42855896405445,94.19642363351835 195.53570183830323,97.76785213652323 195.53570183830323,101.33928063952811 195.53570183830323,104.910709142533 195.53570183830323,108.48213764553788 197.32141608980567,112.05356614854276 198.2142732155569,116.5178517772988 202.678558844313,120.9821374060549 208.92855872457153,128.12499441206467 219.64284423358606,138.83927992107925 231.24998686835193,149.5535654300939 244.6428437546202,159.37499381335732 261.6071291438933,169.1964221966207 276.78570028166405,178.1249934541329 294.64284279668846,185.26785046014265 312.49998531171275,192.41070746615236 330.35712782673716,199.55356447216212 344.6428418387567,205.80356435242066 358.9285558507761,210.26784998117677 369.64284135979074,215.62499273568403 376.7856983658005,220.08927836444013 383.92855537181026,227.2321353704499 388.39284100056636,234.3749923764597 391.07141237782,241.5178493824694 391.96426950357124,252.232134891484 391.96426950357124,262.9464204004986 391.07141237782,273.66070590951324 386.6071267490639,285.26784854427905 382.1428411203078,295.9821340532937 374.10712698854684,306.6964195623083 366.07141285678586,316.5178479455717 356.24998447352243,324.5535620773327 347.32141321601034,333.4821333348449 335.7142705812445,342.4107045923571 326.7856993237323,348.6607044726155 315.1785566889664,356.6964186043765 304.4642711799519,363.83927561038627 294.64284279668846,373.6607039936497 283.9285572876738,381.6964181254107 274.9999860301616,390.6249893829229 266.0714147726494,398.66070351468375 257.1428435151373,408.48213189794717 248.21427225762508,415.62498890395693 241.07141525161532,420.98213165846425 233.03570111985434,426.3392744129716 224.99998698809338,430.8035600417277 217.85712998208362,433.48213141898134 211.60713010182508,435.2678456704838 204.46427309581543,437.0535599219862 199.1071303413081,437.0535599219862 193.74998758680078,437.0535599219862 186.60713058079102,436.160702796235 181.2499878262837,435.2678456704838 176.7857021975276,431.6964171674789 171.42855944302028,428.124988664474 166.07141668851295,424.55356016146914 159.82141680825453,420.98213165846425 153.57141692799598,413.8392746524545 147.32141704773744,408.48213189794717 139.28570291597646,403.12498914343985 132.1428459099667,395.9821321374301 122.32141752670327,388.83927513142044 113.39284626919118,381.6964181254107 101.78570363442532,374.5535611194009 92.85713237691311,367.41070411339115 85.71427537090335,361.1607042331326 80.35713261639603,357.5892757301277 76.78570411339115,354.01784722712284 75.89284698763993,353.1249901013716 74.99998986188871,350.44641872411796 74.10713273613749,347.7678473468643 74.10713273613749,345.98213309536186 74.10713273613749,342.4107045923571 74.10713273613749,338.8392760893522 75.89284698763993,335.26784758634733 77.67856123914237,331.69641908334245 80.35713261639603,329.0178477060888 83.92856111940091,328.12499058033757 86.60713249665457,324.5535620773327 90.17856099965945,324.5535620773327 91.07141812541067,322.76784782583024 94.64284662841555,322.76784782583024 97.32141800566922,322.76784782583024 100.8928465086741,324.5535620773327 105.3571321374302,328.12499058033757 108.92856064043508,334.3749904605961 113.39284626919118,338.8392760893522 118.74998902369839,345.98213309536186 122.32141752670327,353.1249901013716 126.78570315545939,360.2678471073814 129.46427453271303,366.5178469876399 131.24998878421547,370.98213261639603 133.92856016146914,377.2321324966546 134.82141728722036,381.6964181254107 137.49998866447402,388.83927513142044 137.49998866447402,395.08927501167886 137.49998866447402,402.2321320176886 138.39284579022524,408.48213189794717 138.39284579022524,415.62498890395693 140.17856004172768,424.55356016146914 141.0714171674789,431.6964171674789 141.0714171674789,435.2678456704838 141.96427429323012,440.624988424991 144.64284567048378,442.41070267649343 147.32141704773744,442.41070267649343 148.21427417348866,442.41070267649343 154.4642740537472,442.41070267649343 159.82141680825453,442.41070267649343 169.64284519151784,440.624988424991 181.2499878262837,439.73213129923977 195.53570183830323,439.73213129923977 212.4999872275763,439.73213129923977 227.67855836534704,438.83927417348866 241.07141525161532,438.83927417348866 258.92855776663964,437.0535599219862 272.32141465290795,435.2678456704838 283.0357001619226,432.5892742932301 294.64284279668846,429.01784579022524 305.3571283057031,426.3392744129716 316.07141381471763,421.8749887842155 326.7856993237323,417.4107031554594 334.82141345549326,411.16070327520083 341.0714133357518,406.69641764644473 347.32141321601034,401.3392748919374 350.8928417190152,395.9821321374301 352.67855597051766,389.73213225717166 355.3571273477712,381.6964181254107 356.24998447352243,374.5535611194009 358.0356987250249,367.41070411339115 358.0356987250249,358.48213285587894 358.0356987250249,349.55356159836674 357.14284159927365,342.4107045923571 355.3571273477712,332.58927620909367 354.46427022202,324.5535620773327 352.67855597051766,314.73213369406926 351.78569884476644,306.6964195623083 350.8928417190152,299.5535625562986 349.1071274675128,288.83927704728393 348.21427034176156,279.9107057897718 345.5356989645079,272.767848783762 342.85712758725424,264.73213465200104 338.39284195849814,256.6964205202401 333.0356992039908,247.7678492627279 327.6785564494835,240.62499225671814 320.53569944347373,232.58927812495722 312.49998531171275,224.55356399319624 304.4642711799519,215.62499273568403 295.5356999224397,206.69642147817189 285.71427153917625,196.87499309490846 276.78570028166405,188.83927896314748 267.85712902415185,179.0178505798841 258.03570064088854,169.1964221966207 252.6785578863812,163.83927944211337 245.53570088037145,154.91070818460122 238.3928438743617,146.87499405284024 232.14284399410317,139.73213704683047 226.78570123959582,135.26785141807443 221.4285584850885,129.0178515378159 215.17855860482996,122.76785165755734 209.82141585032275,117.41070890305004 203.5714159700642,110.26785189704032 197.32141608980567,104.01785201678177 192.85713046104956,97.76785213652323 186.60713058079102,90.62499513051347 182.14284495203492,83.48213812450376 177.67855932327882,76.339281118494 173.21427369452272,68.30356698673302 167.8571309400154,56.69642435196721 160.71427393400575,43.30356746569893 157.14284543100086,38.83928183694283 153.57141692799598,33.48213908243554 150.89284555074232,29.017853453679432 149.10713129923988,25.446424950674555 147.32141704773744,20.98213932191848 146.42855992198622,19.19642507041604 146.42855992198622,17.4107108189136 146.42855992198622,15.62499656741116 146.42855992198622,14.73213944165994 147.32141704773744,13.839282315908719 147.32141704773744,15.62499656741116 146.42855992198622,17.4107108189136 145.535702796235,20.08928219616726 143.74998854473256,23.660710699172142 141.96427429323012,27.232139202176995 140.17856004172768,31.6964248309331 137.49998866447402,35.26785333393798 133.92856016146914,38.83928183694283 130.35713165846425,45.089281717201374 125.89284602970815,49.55356734595745 120.53570327520083,53.12499584896233 114.28570339494229,58.48213860346966 107.14284638893264,63.83928135797697 99.99998938292288,67.4107098609818 93.74998950266433,72.76785261548912 86.60713249665457,77.23213824424522 80.35713261639603,81.69642387300132 75.89284698763993,85.2678523760062 72.32141848463505,90.62499513051347 70.5357042331326,94.19642363351835 70.5357042331326,98.66070926227445 70.5357042331326,103.12499489103055 70.5357042331326,106.69642339403543 72.32141848463505,112.94642327429398 73.21427561038627,117.41070890305004 74.10713273613749,120.9821374060549 75.89284698763993,126.33928016056223 75.89284698763993,130.80356578931833 76.78570411339115,134.3749942923232 76.78570411339115,138.83927992107925 77.67856123914237,144.19642267558658 80.35713261639603,149.5535654300939 86.60713249665457,160.26785093910854 87.49998962240579,163.83927944211337 91.07141812541067,170.0892793223719 97.32141800566922,177.23213632838167 102.67856076017654,184.37499333439143 108.92856064043508,192.41070746615236 116.07141764644473,199.55356447216212 122.32141752670327,203.124992975167 127.6785602812106,209.37499285542555 133.92856016146914,212.05356423267915 140.17856004172768,213.8392784841816 144.64284567048378,217.41070698718647 151.78570267649354,219.1964212386889 158.03570255675209,220.98213549019135 165.17855956276173,223.66070686744501 172.3214165687715,224.55356399319624 180.35713070053248,227.2321353704499 187.49998770654224,228.12499249620112 197.32141608980567,228.12499249620112 204.46427309581543,228.12499249620112 212.4999872275763,228.12499249620112 219.64284423358606,228.12499249620112 227.67855836534704,228.12499249620112 233.9285582456056,226.33927824469868 240.17855812586416,224.55356399319624 244.6428437546202,224.55356399319624 248.21427225762508,222.7678497416938 249.10712938337633,222.7678497416938 250.8928436348788,221.87499261594257 251.78570076062996,221.87499261594257 251.78570076062996,221.87499261594257 251.78570076062996,222.7678497416938 252.6785578863812,222.7678497416938 255.35712926363485,224.55356399319624 258.03570064088854,226.33927824469868 259.82141489239086,228.12499249620112 262.4999862696445,230.8035638734548 266.0714147726494,231.69642099920597 269.6428432756543,234.3749923764597 272.32141465290795,235.2678495022108 273.21427177865917,237.9464208794645 274.1071289044104,240.62499225671814 276.78570028166405,242.41070650822056 277.67855740741527,247.7678492627279 280.35712878466893,252.232134891484 281.24998591042015,256.6964205202401 284.82141441342503,263.8392775262498 287.4999857906787,270.9821345322596 291.0714142936836,278.12499153826934 294.64284279668846,285.26784854427905 295.5356999224397,291.5178484245376 298.21427129969334,298.66070543054735 301.7856998026982,303.1249910593034 304.4642711799519,310.26784806531316 305.3571283057031,316.5178479455717 308.03569968295665,322.76784782583024 308.92855680870787,328.12499058033757 308.92855680870787,333.4821333348449 308.03569968295665,338.8392760893522 306.2499854314543,344.1964188438594 303.57141405420066,348.6607044726155 299.9999855511958,353.1249901013716 295.5356999224397,356.6964186043765 290.17855716793235,360.2678471073814 283.9285572876738,365.6249898618887 277.67855740741527,367.41070411339115 272.32141465290795,370.98213261639603 264.28570052114696,372.76784686789847 257.1428435151373,373.6607039936497 248.21427225762508,374.5535611194009 236.60712962285922,374.5535611194009 224.99998698809338,374.5535611194009 213.39284435332752,374.5535611194009 200.89284459281055,374.5535611194009 188.39284483229346,374.5535611194009 177.67855932327882,376.33927537090335 167.8571309400154,377.2321324966546 159.82141680825453,377.2321324966546 153.57141692799598,378.1249896224058 148.21427417348866,378.1249896224058 146.42855992198622,378.1249896224058 144.64284567048378,375.44641824515213 143.74998854473256,374.5535611194009 143.74998854473256,370.98213261639603 143.74998854473256,367.41070411339115 144.64284567048378,364.7321327361375 145.535702796235,361.1607042331326 148.21427417348866,357.5892757301277 151.78570267649354,354.01784722712284 156.24998830524964,350.44641872411796 162.49998818550807,345.98213309536186 170.53570231726906,342.4107045923571 181.2499878262837,337.05356183784977 191.07141620954712,331.69641908334245 204.46427309581543,326.3392763288351 216.9642728563324,319.19641932282536 230.3571297426007,313.83927656831804 244.6428437546202,304.91070531080584 255.35712926363485,299.5535625562986 266.0714147726494,292.4107055502888 275.89284315591283,285.26784854427905 283.9285572876738,278.12499153826934 293.74998567093724,270.9821345322596 300.892842676947,262.0535632747474 306.2499854314543,254.01784914298645 312.49998531171275,245.98213501122544 318.7499851919713,236.16070662796204 323.2142708207274,226.33927824469868 326.7856993237323,217.41070698718647 329.46427070098594,207.5892786039231 331.2499849524884,200.44642159791334 333.0356992039908,193.30356459190358 333.0356992039908,186.16070758589387 333.0356992039908,181.69642195713777 333.0356992039908,178.1249934541329 333.0356992039908,174.553564951128 333.0356992039908,169.1964221966207 333.92855632974204,165.6249936936158 333.92855632974204,161.16070806485976 337.4999848327469,156.69642243610366 343.74998471300546,138.83927992107925 345.5356989645079,131.69642291506955 347.32141321601034,126.33928016056223 348.21427034176156,120.9821374060549 349.1071274675128,117.41070890305004 349.1071274675128,113.8392804000452 349.1071274675128,110.26785189704032 349.1071274675128,108.48213764553788 349.1071274675128,107.58928051978666 349.1071274675128,106.69642339403543 348.21427034176156,106.69642339403543 347.32141321601034,104.910709142533 346.4285560902591,104.01785201678177 344.6428418387567,104.01785201678177 343.74998471300546,103.12499489103055 342.85712758725424,103.12499489103055 342.85712758725424,104.910709142533 342.85712758725424,106.69642339403543 343.74998471300546,110.26785189704032 344.6428418387567,113.8392804000452 344.6428418387567,117.41070890305004 347.32141321601034,123.66070878330855 349.1071274675128,128.12499441206467 352.67855597051766,135.26785141807443 356.24998447352243,142.41070842408413 361.60712722802975,148.66070830434268 366.07141285678586,156.69642243610366 372.3214127370444,163.83927944211337 376.7856983658005,170.98213644812313 380.3571268688054,179.91070770563533 383.92855537181026,187.05356471164504 387.49998387481514,195.08927884340602 388.39284100056636,202.23213584941578 391.07141237782,209.37499285542555 391.07141237782,217.41070698718647 391.96426950357124,226.33927824469868 391.96426950357124,234.3749923764597 391.96426950357124,240.62499225671814 391.96426950357124,247.7678492627279 390.1785552520688,255.8035633944889 387.49998387481514,263.8392775262498 384.8214124975615,270.9821345322596 382.1428411203078,278.12499153826934 377.6785554915517,287.9464199215327 373.2142698627956,295.9821340532937 367.8571271082883,303.1249910593034 363.3928414795322,312.9464194425668 358.9285558507761,320.9821335743278 356.24998447352243,328.12499058033757 352.67855597051766,337.946418963601 350.8928417190152,342.4107045923571 349.1071274675128,349.55356159836674 348.21427034176156,353.1249901013716 347.32141321601034,359.37498998163016 347.32141321601034,362.0535613588838 347.32141321601034,365.6249898618887 347.32141321601034,367.41070411339115 348.21427034176156,370.0892754906448 349.1071274675128,372.76784686789847 351.78569884476644,374.5535611194009 355.3571273477712,378.1249896224058 358.9285558507761,378.1249896224058 365.17855573103463,379.91070387390823 370.53569848554196,380.80356099965945 377.6785554915517,380.80356099965945 386.6071267490639,379.91070387390823 393.7499837550737,379.017846748157 400.89284076108345,378.1249896224058 408.9285548928443,374.5535611194009 413.3928405216004,372.76784686789847 419.64284040185896,371.87498974214725 422.3214117791126,370.98213261639603 424.10712603061506,370.98213261639603 426.7856974078687,370.98213261639603 427.67855453361994,370.98213261639603 429.4642687851224,370.98213261639603 430.3571259108736,373.6607039936497 430.3571259108736,374.5535611194009 430.3571259108736,378.1249896224058 430.3571259108736,381.6964181254107 428.57141165937117,384.37498950266433 427.67855453361994,387.9464180056692 425.8928402821175,392.4107036344252 423.21426890486384,395.9821321374301 421.4285546533614,399.55356064043497 418.74998327610774,404.9107033949423 416.9642690246053,409.3749890236984 415.17855477310286,412.94641752670327 413.3928405216004,417.4107031554594 411.607126270098,420.98213165846425 408.9285548928443,426.3392744129716 407.1428406413419,430.8035600417277 405.35712638983944,434.37498854473256 403.571412138337,438.83927417348866 400.89284076108345,442.41070267649343 398.2142693838298,445.9821311794983 395.5356980065761,449.5535596825032 392.85712662932247,453.1249881855081 390.1785552520688,456.69641668851295 386.6071267490639,460.26784519151784 383.92855537181026,462.94641656877155 380.3571268688054,463.8392736945228 376.7856983658005,467.4107021975276 373.2142698627956,469.19641644903004 370.53569848554196,470.08927357478126 366.07141285678586,470.98213070053254 360.71427010227853,470.98213070053254 356.24998447352243,472.76784495203486 349.999984593264,472.76784495203486 344.6428418387567,472.76784495203486 336.6071277069957,472.76784495203486 329.46427070098594,471.87498782628376 322.3214136949762,470.98213070053254 313.39284243746397,468.3035593232788 306.2499854314543,467.4107021975276 295.5356999224397,463.8392736945228 286.6071286649275,462.0535594430203 278.5714145331665,460.26784519151784 267.85712902415185,457.5892738142641 259.82141489239086,456.69641668851295 249.10712938337633,453.1249881855081 238.3928438743617,450.4464168082544 227.67855836534704,446.87498830524953 219.64284423358606,445.9821311794983 209.82141585032275,442.41070267649343 201.78570171856177,439.73213129923977 193.74998758680078,436.160702796235 187.49998770654224,433.48213141898134 182.14284495203492,431.6964171674789 177.67855932327882,428.124988664474 172.3214165687715,425.44641728722036 167.8571309400154,422.7678459099667 163.3928453112593,420.98213165846425 159.82141680825453,417.4107031554594 156.24998830524964,413.8392746524545 152.67855980224476,411.16070327520083 149.10713129923988,408.48213189794717 145.535702796235,404.01784626919107 142.85713141898134,399.55356064043497 141.0714171674789,395.9821321374301 138.39284579022524,389.73213225717166 136.6071315387228,385.26784662841555 134.82141728722036,379.017846748157 133.03570303571792,374.5535611194009 132.1428459099667,368.30356123914237 130.35713165846425,363.83927561038627 129.46427453271303,358.48213285587894 128.5714174069618,354.01784722712284 127.6785602812106,350.44641872411796 127.6785602812106,346.8749902211131 127.6785602812106,343.3035617181082 127.6785602812106,339.73213321510343 129.46427453271303,335.26784758634733 131.24998878421547,331.69641908334245 136.6071315387228,325.4464192030839 141.0714171674789,320.9821335743278 147.32141704773744,313.83927656831804 152.67855980224476,307.5892766880595 159.82141680825453,303.1249910593034 166.07141668851295,296.8749911790449 173.21427369452272,292.4107055502888 180.35713070053248,287.0535627957815 188.39284483229346,283.4821342927766 208.0357015988203,278.12499153826934 216.07141573058118,276.3392772867669 230.3571297426007,275.4464201610157 241.07141525161532,274.55356303526446 254.46427213788368,274.55356303526446 266.9642718984006,272.767848783762 280.35712878466893,272.767848783762 291.0714142936836,272.767848783762 301.7856998026982,272.767848783762 309.8214139344591,272.767848783762 319.6428423177225,272.767848783762 326.7856993237323,273.66070590951324 333.92855632974204,274.55356303526446 341.0714133357518,276.3392772867669 347.32141321601034,278.12499153826934 351.78569884476644,279.9107057897718 358.9285558507761,281.6964200412742 363.3928414795322,281.6964200412742 368.7499842340395,281.6964200412742 372.3214127370444,281.6964200412742 375.8928412400493,279.9107057897718 379.46426974305416,276.3392772867669 381.2499839945566,272.767848783762 383.92855537181026,268.3035631550059 387.49998387481514,263.8392775262498 388.39284100056636,258.48213477174255 391.07141237782,253.12499201723526 391.07141237782,247.7678492627279 391.96426950357124,242.41070650822056 393.7499837550737,236.16070662796204 393.7499837550737,229.91070674770356 394.6428408808249,221.87499261594257 394.6428408808249,213.8392784841816 395.5356980065761,203.124992975167 395.5356980065761,194.1964217176548 397.32141225807857,185.26785046014265 398.2142693838298,174.553564951128 398.2142693838298,164.7321365678646 398.2142693838298,158.4821366876061 398.2142693838298,150.44642255584512 398.2142693838298,142.41070842408413 396.42855513232735,135.26785141807443 394.6428408808249,129.0178515378159 391.96426950357124,122.76785165755734 388.39284100056636,117.41070890305004 385.7142696233127,111.16070902279154 382.1428411203078,106.69642339403543 377.6785554915517,101.33928063952811 373.2142698627956,95.98213788502079 369.64284135979074,92.41070938201591 363.3928414795322,88.83928087901108 357.14284159927365,85.2678523760062 348.21427034176156,82.58928099875254 339.28569908424936,79.91070962149888 329.46427070098594,78.12499536999644 320.53569944347373,78.12499536999644 311.6071281859615,78.12499536999644 307.1428425572054,78.12499536999644 305.3571283057031,78.12499536999644 304.4642711799519,78.12499536999644 303.57141405420066,78.12499536999644 303.57141405420066,78.12499536999644 304.4642711799519,78.12499536999644 305.3571283057031,78.12499536999644 308.92855680870787,78.12499536999644 316.07141381471763,78.12499536999644 326.7856993237323,78.12499536999644 340.1785562100006,81.69642387300132 351.78569884476644,81.69642387300132 363.3928414795322,85.2678523760062 374.10712698854684,87.05356662750864 383.92855537181026,88.83928087901108 391.07141237782,90.62499513051347 395.5356980065761,92.41070938201591 399.107126509581,94.19642363351835 401.78569788683467,95.98213788502079 405.35712638983944,97.76785213652323 408.9285548928443,99.55356638802567 412.4999833958492,103.12499489103055 419.64284040185896,105.80356626828421 425.8928402821175,109.3749947712891 430.3571259108736,112.94642327429398 434.8214115396297,116.5178517772988 438.3928400426346,120.9821374060549 441.07141141988814,124.55356590905978 441.07141141988814,127.23213728631343 441.07141141988814,130.80356578931833 439.2856971683858,135.26785141807443 436.60712579113215,138.83927992107925 433.03569728812727,142.41070842408413 429.4642687851224,148.66070830434268 425.8928402821175,153.12499393309878 422.3214117791126,159.37499381335732 417.8571261503565,163.83927944211337 413.3928405216004,170.98213644812313 409.82141201859554,178.1249934541329 406.24998351559066,185.26785046014265 402.6785550125858,192.41070746615236 398.2142693838298,203.124992975167 394.6428408808249,210.26784998117677 390.1785552520688,220.98213549019135 386.6071267490639,228.12499249620112 383.03569824605904,237.9464208794645 379.46426974305416,245.98213501122544 374.99998411429806,255.8035633944889 372.3214127370444,263.8392775262498 371.4285556112932,270.9821345322596 370.53569848554196,278.12499153826934 370.53569848554196,284.3749914185278 373.2142698627956,292.4107055502888 376.7856983658005,299.5535625562986 383.92855537181026,306.6964195623083 390.1785552520688,315.6249908198205 398.2142693838298,323.66070495158147 405.35712638983944,330.8035619575912 412.4999833958492,337.946418963601 420.5356975276102,345.08927596961064 426.7856974078687,351.3392758498692 433.03569728812727,356.6964186043765 436.60712579113215,362.94641848463505 440.17855429413703,370.0892754906448 441.96426854563947,374.5535611194009 444.642839922893,380.80356099965945 444.642839922893,385.26784662841555 444.642839922893,390.6249893829229 444.642839922893,395.08927501167886 444.642839922893,399.55356064043497 442.8571256713906,404.9107033949423 440.17855429413703,409.3749890236984 436.60712579113215,413.8392746524545 433.03569728812727,417.4107031554594 427.67855453361994,422.7678459099667 421.4285546533614,427.2321315387228 416.9642690246053,431.6964171674789 411.607126270098,435.2678456704838 408.0356977670931,440.624988424991 404.4642692640882,445.0892740537471 402.6785550125858,448.66070255675197 400.89284076108345,451.33927393400563 399.9999836353322,454.9107024370105 399.107126509581,456.69641668851295 398.2142693838298,460.26784519151784 398.2142693838298,462.0535594430203 398.2142693838298,463.8392736945228 398.2142693838298,463.8392736945228 399.107126509581,465.6249879460251 400.89284076108345,466.5178450717764 402.6785550125858,466.5178450717764 405.35712638983944,466.5178450717764 408.9285548928443,465.6249879460251 409.82141201859554,463.8392736945228 412.4999833958492,462.0535594430203 413.3928405216004,461.16070231726906 413.3928405216004,460.26784519151784 412.4999833958492,460.26784519151784 405.35712638983944,463.8392736945228 402.6785550125858,465.6249879460251 398.2142693838298,467.4107021975276 392.85712662932247,467.4107021975276 384.8214124975615,469.19641644903004 378.57141261730294,470.08927357478126 368.7499842340395,470.98213070053254 358.0356987250249,470.98213070053254 344.6428418387567,470.98213070053254 331.2499849524884,470.98213070053254 317.85712806622007,470.98213070053254 301.7856998026982,469.19641644903004 285.71427153917625,467.4107021975276 272.32141465290795,467.4107021975276 256.2499863893861,463.8392736945228 243.74998662886904,461.16070231726906 227.67855836534704,457.5892738142641 215.17855860482996,454.9107024370105 202.678558844313,450.4464168082544 192.85713046104956,446.87498830524953 182.14284495203492,442.41070267649343 173.21427369452272,436.160702796235 166.07141668851295,431.6964171674789 158.9285596825033,425.44641728722036 153.57141692799598,420.98213165846425 149.10713129923988,417.4107031554594 145.535702796235,412.05356040095205 141.96427429323012,407.58927477219595 139.28570291597646,403.12498914343985 135.71427441297158,399.55356064043497 133.03570303571792,393.3035607601764 130.35713165846425,388.83927513142044 128.5714174069618,382.5892752511619 126.78570315545939,374.5535611194009 126.78570315545939,370.98213261639603 125.89284602970815,361.1607042331326 125.89284602970815,356.6964186043765 125.89284602970815,353.1249901013716 125.89284602970815,350.44641872411796 125.89284602970815,346.8749902211131 125.89284602970815,345.98213309536186 125.89284602970815,345.98213309536186 124.10713177820571,345.98213309536186 122.32141752670327,345.98213309536186 118.74998902369839,347.7678473468643 114.28570339494229,349.55356159836674 109.8214177661863,353.1249901013716 106.24998926318142,356.6964186043765 101.78570363442532,360.2678471073814 97.32141800566922,363.83927561038627 91.9642752511619,367.41070411339115 85.71427537090335,373.6607039936497 79.46427549064481,378.1249896224058 75.89284698763993,381.6964181254107 68.74998998163016,387.9464180056692 63.392847227122964,392.4107036344252 58.92856159836685,395.9821321374301 55.357133095361974,399.55356064043497 52.67856171810831,403.12498914343985 50.89284746660587,404.9107033949423 50.89284746660587,405.8035605206935 50.89284746660587,406.69641764644473 50.89284746660587,406.69641764644473 51.78570459235709,406.69641764644473 51.78570459235709,406.69641764644473 52.67856171810831,406.69641764644473 54.46427596961075,406.69641764644473 58.92856159836685,406.69641764644473 65.1785614786254,404.01784626919107 74.10713273613749,401.3392748919374 83.92856111940091,399.55356064043497 97.32141800566922,395.9821321374301 108.92856064043508,393.3035607601764 122.32141752670327,389.73213225717166 133.92856016146914,386.1607037541668 144.64284567048378,382.5892752511619 158.03570255675209,379.017846748157 170.53570231726906,376.33927537090335 183.92855920353736,374.5535611194009 198.2142732155569,371.87498974214725 211.60713010182508,369.1964183648936 222.32141561083972,367.41070411339115 233.9285582456056,364.7321327361375 241.96427237736657,361.1607042331326 249.10712938337633,357.5892757301277 256.2499863893861,353.1249901013716 262.4999862696445,347.7678473468643 266.9642718984006,342.4107045923571 270.5357004014055,335.26784758634733 273.21427177865917,328.12499058033757 276.78570028166405,320.9821335743278 277.67855740741527,313.83927656831804 279.4642716589177,306.6964195623083 279.4642716589177,296.8749911790449 280.35712878466893,288.83927704728393 280.35712878466893,279.9107057897718 281.24998591042015,271.8749916580108 283.9285572876738,263.8392775262498 283.9285572876738,253.12499201723526 286.6071286649275,244.19642075972303 287.4999857906787,236.16070662796204 287.4999857906787,226.33927824469868 287.4999857906787,218.3035641129377 287.4999857906787,207.5892786039231 287.4999857906787,199.55356447216212 287.4999857906787,189.7321360888987 288.3928429164299,181.69642195713777 288.3928429164299,172.76785069962557 288.3928429164299,165.6249936936158 288.3928429164299,157.58927956185488 288.3928429164299,151.33927968159634 288.3928429164299,145.98213692708902 286.6071286649275,138.83927992107925 284.82141441342503,133.482137166572 283.0357001619226,128.12499441206467 280.35712878466893,121.87499453180611 277.67855740741527,117.41070890305004 274.9999860301616,111.16070902279154 271.4285575271567,106.69642339403543 267.85712902415185,101.33928063952811 264.28570052114696,95.98213788502079 259.82141489239086,92.41070938201591 255.35712926363485,88.83928087901108 251.78570076062996,85.2678523760062 248.21427225762508,81.69642387300132 246.42855800612267,79.91070962149888 243.74998662886904,78.12499536999644 241.96427237736657,76.339281118494 239.2857010001129,75.44642399274278 237.49998674861047,74.55356686699156 234.8214153713568,74.55356686699156 231.24998686835193,74.55356686699156 227.67855836534704,74.55356686699156 224.10712986234216,74.55356686699156 219.64284423358606,74.55356686699156 216.07141573058118,74.55356686699156 211.60713010182508,74.55356686699156 208.0357015988203,77.23213824424522 204.46427309581543,79.91070962149888 201.78570171856177,81.69642387300132 199.1071303413081,84.37499525025498 196.42855896405445,87.05356662750864 192.85713046104956,88.83928087901108 190.1785590837959,92.41070938201591 188.39284483229346,94.19642363351835 185.7142734550398,95.98213788502079 183.92855920353736,95.98213788502079 182.14284495203492,98.66070926227445 181.2499878262837,99.55356638802567 180.35713070053248,99.55356638802567 179.46427357478126,102.23213776527933 178.57141644903004,103.12499489103055 178.57141644903004,103.12499489103055 177.67855932327882,104.910709142533 177.67855932327882,105.80356626828421 176.7857021975276,106.69642339403543 176.7857021975276,106.69642339403543 176.7857021975276,108.48213764553788 176.7857021975276,109.3749947712891 175.89284507177638,110.26785189704032 175.89284507177638,110.26785189704032 174.99998794602516,112.94642327429398 174.99998794602516,113.8392804000452 174.10713082027394,116.5178517772988 173.21427369452272,117.41070890305004 172.3214165687715,119.19642315455246 170.53570231726906,120.9821374060549 169.64284519151784,122.76785165755734 169.64284519151784,123.66070878330855 168.74998806576662,124.55356590905978 167.8571309400154,124.55356590905978 167.8571309400154,126.33928016056223 167.8571309400154,127.23213728631343 166.96427381426417,127.23213728631343 166.96427381426417,128.12499441206467 166.96427381426417,128.12499441206467 166.96427381426417,129.9107086635671 166.96427381426417,131.69642291506955 166.96427381426417,134.3749942923232 166.96427381426417,135.26785141807443 168.74998806576662,138.83927992107925 169.64284519151784,141.51785129833291 169.64284519151784,144.19642267558658 " style="color: rgb(0, 0, 0);"/></g></svg>